<?xml version="1.0" encoding="iso-8859-1"?>
<!-- Generator: Adobe Illustrator 19.0.0, SVG Export Plug-In . SVG Version: 6.00 Build 0)  -->
<svg version="1.1" id="Capa_1" xmlns="http://www.w3.org/2000/svg" xmlns:xlink="http://www.w3.org/1999/xlink" x="0px" y="0px"
	 viewBox="0 0 512 512" style="enable-background:new 0 0 512 512;" xml:space="preserve">
<g>
	<g>
		<path d="M511.893,383.757v-8.531h-1.674L445.626,45.998l-99.503,19.523l15.824,80.651H91.923
			c-29.319,0-53.173,23.853-53.173,53.173c0,8.595,2.063,16.714,5.7,23.906C19.268,227.426,0,249.348,0,275.695
			c0,26.349,19.268,48.27,44.451,52.445c-3.637,7.192-5.7,15.311-5.7,23.906c0,8.304,1.917,16.169,5.327,23.179H0v90.776h511.893
			v-81.677l0.107-0.021L511.893,383.757z M476.793,360.647l-40.64,7.973l-5.667-28.883l40.638-7.973L476.793,360.647z
			 M465.352,302.33l-40.638,7.973l-31.77-161.931l40.64-7.973L465.352,302.33z M421.969,81.206l5.839,29.761l-40.64,7.972
			l-5.839-29.76L421.969,81.206z M349.415,199.343c0-11.179,7.958-20.537,18.508-22.704l38.962,198.586h-34.292
			c-12.78,0-23.178-10.398-23.178-23.179s10.397-23.179,23.178-23.179v-29.994h-38.751c-12.78,0-23.179-10.398-23.179-23.179
			c0-12.78,10.398-23.178,23.179-23.178h38.751v-29.994C359.813,222.523,349.415,212.125,349.415,199.343z M324.744,375.227H91.923
			c-12.78-0.001-23.178-10.399-23.178-23.179s10.398-23.179,23.179-23.179h232.82c-3.408,7.01-5.322,14.876-5.322,23.179
			C319.422,360.351,321.336,368.217,324.744,375.227z M91.923,176.167h232.82c-3.408,7.01-5.322,14.876-5.322,23.179
			c0,8.303,1.914,16.17,5.322,23.179H91.923c-12.78,0-23.179-10.398-23.179-23.179C68.745,186.565,79.142,176.167,91.923,176.167z
			 M29.994,275.695c0-12.78,10.398-23.178,23.179-23.178h38.751h194.068c-3.408,7.009-5.322,14.875-5.322,23.178
			c0,8.303,1.914,16.17,5.322,23.179H91.923h-38.75C40.392,298.875,29.994,288.477,29.994,275.695z M481.899,436.008H29.994v-30.789
			h451.906V436.008z"/>
	</g>
</g>
<g>
</g>
<g>
</g>
<g>
</g>
<g>
</g>
<g>
</g>
<g>
</g>
<g>
</g>
<g>
</g>
<g>
</g>
<g>
</g>
<g>
</g>
<g>
</g>
<g>
</g>
<g>
</g>
<g>
</g>
</svg>
