<svg height="511pt" viewBox="-21 0 511 511.99935" width="511pt" xmlns="http://www.w3.org/2000/svg"><path d="m13.605469 498.644531 8.796875 8.898438c5.792968 5.863281 15.289062 5.976562 21.210937.125 5.894531-5.824219 5.949219-15.320313.125-21.214844l-8.855469-8.960937c-5.851562-5.851563-5.851562-15.367188 0-21.214844l10.605469-10.609375 10.609375 10.609375c17.585938 17.585937 46.050782 17.585937 63.640625 0l12.414063-12.414063c16.375 7.839844 37.105468 5.324219 51.230468-8.804687l54.859376-54.859375c16.738281 7.972656 37.378906 5.054687 51.210937-8.78125 17.546875-17.546875 17.546875-46.097657 0-63.644531l-10.605469-10.605469 107.890625-107.890625c20.679688-20.679688 32.691407-47.714844 34.222657-76.703125l35.371093-35.777344c17.546875-17.546875 17.546875-46.097656 0-63.644531s-46.09375-17.546875-63.703125.0625l-35.363281 35.773437c-28.949219 1.554688-55.941406 13.5625-76.597656 34.214844l-107.894531 107.894531-10.605469-10.609375c-17.546875-17.546875-46.097657-17.546875-63.644531 0-13.828126 13.828125-16.75 34.488281-8.78125 51.210938l-54.863282 54.863281c-13.828125 13.824219-16.75 34.484375-8.78125 51.210938l-12.433594 12.429687c-17.542968 17.546875-17.542968 46.097656 0 63.644531l10.609376 10.605469-10.609376 10.609375c-17.542968 17.546875-17.542968 46.097656-.058593 63.582031zm84.917969-63.582031c-5.863282 5.859375-15.351563 5.863281-21.214844 0l-42.425782-42.429688c-5.851562-5.847656-5.851562-15.367187 0-21.214843l10.605469-10.605469 63.644531 63.644531zm42.429687-21.214844-84.855469-84.859375c-5.851562-5.847656-5.851562-15.363281 0-21.214843l10.605469-10.605469 106.070313 106.074219-10.605469 10.605468c-5.863281 5.863282-15.351563 5.863282-21.214844 0zm74.25-53.035156-21.214844 21.214844-106.070312-106.074219 21.214843-21.214844zm198.699219-326.445312c5.851562-5.847657 15.367187-5.847657 21.214844 0 5.765624 5.765624 5.984374 15.230468-.0625 21.277343l-28.984376 29.320313c-7.523437-7.527344-13.167968-13.171875-21.210937-21.214844zm-198.699219 156.726562 31.824219 31.824219c5.855468 5.859375 15.355468 5.859375 21.210937 0 5.859375-5.859375 5.859375-15.355469 0-21.214844l-31.820312-31.820313 21.214843-21.214843 31.820313 31.820312c5.859375 5.859375 15.355469 5.859375 21.214844 0s5.859375-15.355469 0-21.214843l-31.820313-31.820313 21.210938-21.214844 31.824218 31.820313c5.855469 5.859375 15.355469 5.859375 21.214844 0 5.855469-5.855469 5.855469-15.355469 0-21.210938l-28.730468-28.730468c10.304687-5.199219 21.589843-8.3125 33.328124-9.105469 10.050782 10.054687 23.789063 23.789062 33.234376 33.238281-1.421876 21.089844-10.316407 40.722656-25.40625 55.8125l-107.890626 107.890625-63.644531-63.644531zm-95.464844 10.609375c5.847657-5.847656 15.363281-5.847656 21.214844 0l127.285156 127.285156c5.851563 5.851563 5.851563 15.367188 0 21.214844-5.847656 5.847656-15.363281 5.851563-21.214843 0l-127.285157-127.285156c-5.847656-5.847657-5.847656-15.367188 0-21.214844zm0 0"/></svg>